<svg width="12" height="12" viewBox="0 0 12 12" fill="none" xmlns="http://www.w3.org/2000/svg">
<path d="M6 1L6.79456 3.95101C6.8915 4.31111 6.94 4.49116 7.03567 4.63836C7.12033 4.76861 7.23139 4.87964 7.36167 4.96433C7.50883 5.06 7.68889 5.1085 8.049 5.20544L11 6L8.049 6.79456C7.68889 6.8915 7.50883 6.94 7.36167 7.03567C7.23139 7.12033 7.12033 7.23139 7.03567 7.36167C6.94 7.50883 6.8915 7.68889 6.79456 8.049L6 11L5.20544 8.049C5.1085 7.68889 5.06 7.50883 4.96433 7.36167C4.87964 7.23139 4.76861 7.12033 4.63836 7.03567C4.49116 6.94 4.31111 6.8915 3.95101 6.79456L1 6L3.95101 5.20544C4.31111 5.1085 4.49116 5.06 4.63836 4.96433C4.76861 4.87964 4.87964 4.76861 4.96433 4.63836C5.06 4.49116 5.1085 4.31111 5.20544 3.95101L6 1Z" stroke="black" stroke-width="2" stroke-linecap="round" stroke-linejoin="round"/>
</svg>
