<svg width="20" height="20" viewBox="0 0 20 20" fill="none" xmlns="http://www.w3.org/2000/svg">
<path d="M20 16H0L2.5 14V8C2.50179 6.58312 3.13031 5.21247 4.27423 4.13077C5.41816 3.04908 7.00367 2.32615 8.75 2.09V1C8.75 0.734784 8.8817 0.48043 9.11612 0.292893C9.35054 0.105357 9.66848 0 10 0C10.3315 0 10.6495 0.105357 10.8839 0.292893C11.1183 0.48043 11.25 0.734784 11.25 1V2.09C11.8091 2.17277 12.3544 2.307 12.875 2.49C12.5631 3.09697 12.443 3.75611 12.5254 4.40906C12.6078 5.06201 12.8902 5.68863 13.3475 6.23346C13.8048 6.77829 14.423 7.22452 15.1473 7.53265C15.8716 7.84078 16.6797 8.0013 17.5 8V14L20 16ZM10 20C10.663 20 11.2989 19.7893 11.7678 19.4142C12.2366 19.0391 12.5 18.5304 12.5 18H7.5C7.5 18.5304 7.76339 19.0391 8.23223 19.4142C8.70107 19.7893 9.33696 20 10 20ZM17.5 2C17.0055 2 16.5222 2.1173 16.1111 2.33706C15.6999 2.55682 15.3795 2.86918 15.1903 3.23463C15.0011 3.60009 14.9516 4.00222 15.048 4.39018C15.1445 4.77814 15.3826 5.13451 15.7322 5.41421C16.0819 5.69392 16.5273 5.8844 17.0123 5.96157C17.4972 6.03874 17.9999 5.99913 18.4567 5.84776C18.9135 5.69638 19.304 5.44004 19.5787 5.11114C19.8534 4.78224 20 4.39556 20 4C20 3.46957 19.7366 2.96086 19.2678 2.58579C18.7989 2.21071 18.163 2 17.5 2Z" fill="#2F434F"/>
</svg>
