<svg width="50" height="40" viewBox="0 0 50 40" fill="none" xmlns="http://www.w3.org/2000/svg">
<path d="M49.2188 6.9375H32.8125V1.46875C32.8125 1.0375 32.4625 0.6875 32.0312 0.6875H17.9688C17.5375 0.6875 17.1875 1.0375 17.1875 1.46875V6.9375H0.78125C0.35 6.9375 0 7.2875 0 7.71875V38.9688C0 39.4 0.35 39.75 0.78125 39.75H49.2188C49.65 39.75 50 39.4 50 38.9688V7.71875C50 7.2875 49.65 6.9375 49.2188 6.9375ZM18.75 2.25H31.25V6.9375H18.75V2.25ZM48.4375 38.1875H1.5625V8.5H48.4375V38.1875ZM9.375 13.9688V17.0938C9.375 17.525 9.025 17.875 8.59375 17.875C8.1625 17.875 7.8125 17.525 7.8125 17.0938V13.9688C7.8125 13.5375 8.1625 13.1875 8.59375 13.1875C9.025 13.1875 9.375 13.5375 9.375 13.9688ZM9.375 21.7812V24.9062C9.375 25.3375 9.025 25.6875 8.59375 25.6875C8.1625 25.6875 7.8125 25.3375 7.8125 24.9062V21.7812C7.8125 21.35 8.1625 21 8.59375 21C9.025 21 9.375 21.35 9.375 21.7812ZM9.375 29.5938V32.7188C9.375 33.15 9.025 33.5 8.59375 33.5C8.1625 33.5 7.8125 33.15 7.8125 32.7188V29.5938C7.8125 29.1625 8.1625 28.8125 8.59375 28.8125C9.025 28.8125 9.375 29.1625 9.375 29.5938ZM42.1875 13.9688V17.0938C42.1875 17.525 41.8375 17.875 41.4062 17.875C40.975 17.875 40.625 17.525 40.625 17.0938V13.9688C40.625 13.5375 40.975 13.1875 41.4062 13.1875C41.8375 13.1875 42.1875 13.5375 42.1875 13.9688ZM42.1875 21.7812V24.9062C42.1875 25.3375 41.8375 25.6875 41.4062 25.6875C40.975 25.6875 40.625 25.3375 40.625 24.9062V21.7812C40.625 21.35 40.975 21 41.4062 21C41.8375 21 42.1875 21.35 42.1875 21.7812ZM42.1875 29.5938V32.7188C42.1875 33.15 41.8375 33.5 41.4062 33.5C40.975 33.5 40.625 33.15 40.625 32.7188V29.5938C40.625 29.1625 40.975 28.8125 41.4062 28.8125C41.8375 28.8125 42.1875 29.1625 42.1875 29.5938Z" fill="white"/>
</svg>
