<svg width="50" height="50" viewBox="0 0 50 50" fill="none" xmlns="http://www.w3.org/2000/svg">
<g clip-path="url(#clip0_1_23)">
<path d="M28.125 35.9375L26.5625 35.9375V21.9727C26.5625 21.9563 26.5578 21.9406 26.5578 21.9234C26.5578 21.9063 26.5625 21.8915 26.5625 21.875C26.5625 21.0125 25.8625 20.3125 25 20.3125H21.875C21.0125 20.3125 20.3125 21.0125 20.3125 21.875C20.3125 22.7375 21.0125 23.4375 21.875 23.4375H23.4375V35.9375H21.875C21.0125 35.9375 20.3125 36.6375 20.3125 37.5C20.3125 38.3625 21.0125 39.0625 21.875 39.0625H28.125C28.9875 39.0625 29.6875 38.3625 29.6875 37.5C29.6875 36.6375 28.9875 35.9375 28.125 35.9375ZM25 17.1875C26.7258 17.1875 28.125 15.7883 28.125 14.0625C28.125 12.3367 26.7258 10.9375 25 10.9375C23.2742 10.9375 21.875 12.3367 21.875 14.0625C21.875 15.7883 23.2742 17.1875 25 17.1875ZM25 0C11.193 0 0 11.193 0 25C0 38.8078 11.193 50 25 50C38.8078 50 50 38.8078 50 25C50 11.193 38.8078 0 25 0ZM25 46.9242C12.9383 46.9242 3.125 37.0617 3.125 24.9999C3.125 12.9382 12.9383 3.1249 25 3.1249C37.0617 3.1249 46.875 12.9382 46.875 24.9999C46.875 37.0616 37.0617 46.9242 25 46.9242Z" fill="white"/>
</g>
<defs>
<clipPath id="clip0_1_23">
<rect width="50" height="50" fill="white"/>
</clipPath>
</defs>
</svg>
