<svg width="50" height="50" viewBox="0 0 50 50" fill="none" xmlns="http://www.w3.org/2000/svg">
<path d="M20.0439 35.4258C20.0439 36.4045 20.3342 37.3611 20.8779 38.1749C21.4216 38.9886 22.1944 39.6228 23.0986 39.9974C24.0028 40.3719 24.9977 40.4699 25.9575 40.2789C26.9174 40.088 27.7991 39.6167 28.4911 38.9247C29.1832 38.2327 29.6544 37.351 29.8454 36.3911C30.0363 35.4313 29.9383 34.4363 29.5638 33.5322C29.1892 32.628 28.555 31.8552 27.7413 31.3115C26.9276 30.7677 25.9709 30.4775 24.9922 30.4775C23.6802 30.4788 22.4224 31.0006 21.4947 31.9283C20.567 32.856 20.0452 34.1138 20.0439 35.4258ZM28.377 35.4258C28.377 36.0955 28.1784 36.7501 27.8063 37.3069C27.4342 37.8637 26.9054 38.2977 26.2867 38.5539C25.6679 38.8101 24.9871 38.8771 24.3303 38.7464C23.6735 38.6157 23.0703 38.2931 22.5968 37.8195C22.1233 37.3459 21.8009 36.7425 21.6704 36.0857C21.5399 35.4289 21.6071 34.7481 21.8635 34.1294C22.1199 33.5108 22.554 32.9821 23.1109 32.6102C23.6678 32.2383 24.3225 32.0398 24.9922 32.04C25.8897 32.0411 26.7502 32.3981 27.3848 33.0329C28.0194 33.6677 28.3762 34.5282 28.377 35.4258ZM37.1582 6.58691C37.2135 6.46791 37.2379 6.3369 37.2292 6.20597C37.2205 6.07504 37.1789 5.94842 37.1084 5.83778C37.0378 5.72714 36.9406 5.63605 36.8255 5.57292C36.7105 5.50979 36.5814 5.47665 36.4502 5.47656H30.2002C30.0514 5.47667 29.9057 5.51927 29.7802 5.59938C29.6548 5.67948 29.5549 5.79374 29.4922 5.92871L24.957 15.6943L20.5078 5.93359L20.4922 5.9043C20.4922 5.89551 20.4834 5.88672 20.4785 5.87793C20.4705 5.86282 20.4617 5.84815 20.4521 5.83398L20.4395 5.81445C20.4287 5.79883 20.417 5.78418 20.4053 5.76855L20.3945 5.75586C20.3819 5.74053 20.3686 5.72587 20.3545 5.71191C20.3514 5.70786 20.3478 5.70424 20.3438 5.70117C20.3302 5.68707 20.3158 5.6737 20.3008 5.66113L20.2871 5.65039L20.2432 5.61719L20.2236 5.60449C20.21 5.5957 20.1963 5.58691 20.1816 5.5791L20.1572 5.56445L20.1172 5.5459L20.0869 5.5332C20.0742 5.52747 20.0612 5.52258 20.0479 5.51855L20.0195 5.50781L19.9766 5.49707L19.9463 5.49023L19.8965 5.4834H19.8721H19.8145H13.542C13.5248 5.48243 13.5075 5.48243 13.4902 5.4834H13.4639L13.418 5.49023L13.3848 5.49609L13.3506 5.50488L13.3076 5.51758L13.2812 5.52637L13.2334 5.5459H13.2266L13.209 5.55469L13.165 5.57715L13.1357 5.59473L13.1025 5.61719L13.0693 5.6416L13.0439 5.66211L13.0107 5.69238L12.9893 5.71387C12.9785 5.72461 12.9687 5.73535 12.959 5.74707L12.9385 5.77148L12.9141 5.80371L12.8936 5.83398L12.875 5.86523L12.8545 5.90137L12.8408 5.92969L12.8232 5.9707C12.8232 5.98047 12.8164 5.99023 12.8125 5.99902C12.8086 6.00781 12.8037 6.02734 12.7998 6.04199C12.7959 6.05664 12.7939 6.06348 12.791 6.07422L12.7822 6.11426L12.7764 6.1543C12.7764 6.16504 12.7764 6.17676 12.7764 6.1875C12.7764 6.19824 12.7764 6.2207 12.7764 6.2373C12.7764 6.25391 12.7764 6.25 12.7764 6.25684C12.7764 6.26367 12.7764 6.25684 12.7764 6.26465C12.7764 6.27246 12.7764 6.29883 12.7764 6.31641C12.7764 6.33398 12.7764 6.33398 12.7764 6.34277C12.7764 6.35156 12.7764 6.37305 12.7832 6.38867C12.79 6.4043 12.7832 6.41113 12.79 6.42188C12.792 6.43349 12.795 6.44492 12.7988 6.45605C12.8017 6.47064 12.8056 6.485 12.8105 6.49902C12.8105 6.50781 12.8164 6.5166 12.8203 6.52539C12.8242 6.53418 12.832 6.55762 12.8389 6.57324V6.58008L20.9873 24.4824L20.5674 27.4785C18.8036 28.4608 17.4168 30.002 16.6253 31.8592C15.8337 33.7164 15.6825 35.7842 16.1954 37.7368C16.7083 39.6894 17.8562 41.4159 19.4582 42.6444C21.0603 43.8728 23.0255 44.5335 25.0443 44.5222C27.0631 44.511 29.0209 43.8285 30.6091 42.5822C32.1974 41.336 33.3259 39.5968 33.8171 37.6386C34.3082 35.6804 34.1339 33.6144 33.3217 31.7662C32.5096 29.9179 31.1056 28.3923 29.3311 27.4297L28.8525 24.4775L37.1582 6.58691ZM30.6982 7.03906H35.2256L27.5439 23.585H23.0166L25.6533 17.9111L30.6982 7.03906ZM21.7998 22.4961L14.7686 7.03906H19.3027L24.0938 17.5645L21.7998 22.4961ZM32.5273 35.4258C32.5273 36.9163 32.0853 38.3734 31.2572 39.6127C30.4291 40.8521 29.252 41.818 27.8749 42.3884C26.4978 42.9587 24.9825 43.1079 23.5206 42.817C22.0587 42.5262 20.7159 41.8083 19.662 40.7543C18.6081 39.7002 17.8904 38.3573 17.5998 36.8954C17.3091 35.4335 17.4585 33.9182 18.029 32.5411C18.5996 31.1641 19.5656 29.9872 20.8051 29.1592C22.0445 28.3313 23.5016 27.8895 24.9922 27.8896C26.9902 27.8917 28.9057 28.6864 30.3184 30.0993C31.7311 31.5122 32.5255 33.4278 32.5273 35.4258ZM24.9922 26.3271C24.0608 26.3263 23.1348 26.4692 22.2471 26.751L22.4717 25.1475H27.3779L27.6367 26.7188C26.7795 26.4579 25.8882 26.3259 24.9922 26.3271Z" fill="white"/>
</svg>
