<?xml version="1.0" ?><!-- Uploaded to: SVG Repo, www.svgrepo.com, Generator: SVG Repo Mixer Tools -->
<svg fill="#000000" width="800px" height="800px" viewBox="0 0 512 512" data-name="Layer 1" id="Layer_1" xmlns="http://www.w3.org/2000/svg"><title/><path d="M205.25,362.76a50.67,50.67,0,1,0,50.67-50.67A50.72,50.72,0,0,0,205.25,362.76Zm85.33,0a34.67,34.67,0,1,1-34.66-34.67A34.7,34.7,0,0,1,290.58,362.76ZM380.5,67.45a8,8,0,0,0-7.25-11.37h-64A8,8,0,0,0,302,60.71l-46.44,100L210,60.76l-.16-.3c0-.09-.09-.18-.14-.27a4.87,4.87,0,0,0-.27-.45l-.13-.2c-.11-.16-.23-.31-.35-.47l-.11-.13a5.92,5.92,0,0,0-.41-.45.57.57,0,0,0-.11-.11,5.62,5.62,0,0,0-.44-.41l-.14-.11-.45-.34-.2-.13c-.14-.09-.28-.18-.43-.26l-.25-.15-.41-.19-.31-.13a3.25,3.25,0,0,0-.4-.15L205,56.4l-.44-.11-.31-.07-.51-.07-.25,0-.59,0H138.67a4.71,4.71,0,0,0-.53,0l-.27,0-.47.07-.34.06-.35.09-.44.13-.27.09-.49.2-.07,0-.18.09-.45.23-.3.18-.34.23-.34.25-.26.21-.34.31-.22.22c-.11.11-.21.22-.31.34l-.21.25-.25.33-.21.31-.19.32-.21.37-.14.29-.18.42c0,.1-.07.2-.11.29s-.09.29-.13.44-.06.22-.09.33l-.09.41-.06.41c0,.11,0,.23,0,.34s0,.34,0,.51,0,.13,0,.2,0,0,0,.08,0,.35,0,.53,0,.18,0,.27,0,.31.07.47,0,.23.07.34a2.25,2.25,0,0,0,.09.35,3.17,3.17,0,0,0,.12.44c0,.09.06.18.1.27s.12.33.19.49l0,.07L214.91,250.7l-4.3,30.68a93.15,93.15,0,1,0,89.74-.5l-4.9-30.23Zm-66.15,4.63h46.36L282.05,241.51H235.69l27-58.1h0ZM223.23,230.36l-72-158.28h46.43l49.06,107.78Zm109.85,132.4a77.17,77.17,0,1,1-77.16-77.17A77.24,77.24,0,0,1,333.08,362.76Zm-77.16-93.17a92.65,92.65,0,0,0-28.11,4.34l2.3-16.42h50.24L283,273.6A92.58,92.58,0,0,0,255.92,269.59Z"/></svg>