<svg width="800" height="800" viewBox="0 0 800 800" fill="none" xmlns="http://www.w3.org/2000/svg">
<g clip-path="url(#clip0_74_2)">
<path d="M145.684 345.262H415.158C422.136 345.262 427.789 339.608 427.789 332.631C427.789 325.655 422.136 320 415.158 320H145.684C138.706 320 133.053 325.655 133.053 332.631C133.053 339.608 138.706 345.262 145.684 345.262Z" fill="white"/>
<path d="M145.684 277.895H297.263C304.241 277.895 309.894 272.241 309.894 265.264C309.894 258.287 304.241 252.633 297.263 252.633H145.684C138.706 252.633 133.053 258.287 133.053 265.264C133.053 272.241 138.706 277.895 145.684 277.895Z" fill="white"/>
<path d="M179.369 622.316H617.264C642.802 622.316 663.58 601.538 663.58 576V433.684C663.58 425.55 661.438 417.539 657.38 410.525C653.891 404.486 646.163 402.417 640.124 405.911C634.083 409.4 632.017 417.128 635.51 423.167C637.347 426.345 638.317 429.983 638.317 433.686V576.002C638.317 587.611 628.874 597.055 617.264 597.055H179.369C167.759 597.055 158.316 587.611 158.316 576.002V433.686C158.316 422.077 167.759 412.633 179.369 412.633H415.158C422.136 412.633 427.789 406.978 427.789 400.002C427.789 393.023 422.136 387.37 415.158 387.37H179.369C153.831 387.37 133.053 408.148 133.053 433.686V576.002C133.053 601.538 153.831 622.316 179.369 622.316Z" fill="white"/>
<path d="M745.419 644.12C748.05 636.203 749.475 627.739 749.475 618.948V248.42C749.475 204.309 713.586 168.42 669.475 168.42H597.897V46.3156C597.895 20.7781 577.117 0 551.578 0H517.894C492.356 0 471.578 20.7781 471.578 46.3156V168.42H130.527C86.4156 168.42 50.5266 204.309 50.5266 248.42V618.947C50.5266 627.739 51.9516 636.202 54.5828 644.119C22.5469 654.789 0 684.95 0 720C0 764.111 35.8891 800 80 800H720C764.111 800 800 764.111 800 720C800 684.95 777.453 654.789 745.419 644.12ZM496.842 46.3156C496.842 34.7063 506.286 25.2625 517.895 25.2625H551.58C563.189 25.2625 572.633 34.7063 572.633 46.3156V67.3688H496.844V46.3156H496.842ZM572.631 92.6313V387.369H547.369V92.6313H572.631ZM496.842 92.6313H522.105V387.369H496.842V92.6313ZM496.842 412.631H572.631V444.912C572.631 445.817 572.331 446.714 571.789 447.439L538.105 492.35C537.005 493.816 535.523 494.034 534.736 494.034C533.95 494.034 532.467 493.816 531.367 492.35L497.684 447.442C497.141 446.714 496.841 445.817 496.841 444.912V412.631H496.842ZM75.7891 248.42C75.7891 218.237 100.344 193.683 130.527 193.683H471.58V252.63H381.475C374.497 252.63 368.844 258.284 368.844 265.261C368.844 272.237 374.497 277.892 381.475 277.892H471.58V444.911C471.58 451.244 473.672 457.522 477.475 462.595L511.159 507.506C516.778 515 525.372 519.295 534.739 519.295C544.105 519.295 552.7 514.998 558.319 507.506L592.005 462.592C595.806 457.523 597.898 451.244 597.898 444.911V345.261H650.952C657.93 345.261 663.583 339.606 663.583 332.63C663.583 325.653 657.928 319.998 650.952 319.998H597.898V277.894H650.952C657.93 277.894 663.583 272.239 663.583 265.263C663.583 258.286 657.928 252.631 650.952 252.631H597.898V193.684H669.477C699.659 193.684 724.214 218.239 724.214 248.422V618.948C724.214 649.131 699.659 673.686 669.477 673.686H130.527C100.344 673.686 75.7891 649.131 75.7891 618.948V248.42ZM720 774.738H80C49.8172 774.738 25.2625 750.183 25.2625 720C25.2625 694.598 42.5609 672.948 66.5531 666.933C81.1609 686.361 104.4 698.948 130.527 698.948H669.473C695.598 698.948 718.839 686.361 733.447 666.933C757.439 672.948 774.738 694.6 774.738 720C774.738 750.183 750.183 774.738 720 774.738Z" fill="white"/>
<path d="M368 724.211H366.316C359.338 724.211 353.685 729.864 353.685 736.842C353.685 743.82 359.338 749.473 366.316 749.473H368C374.978 749.473 380.631 743.82 380.631 736.842C380.631 729.864 374.978 724.211 368 724.211Z" fill="white"/>
<path d="M677.895 724.211H425.263C418.284 724.211 412.631 729.864 412.631 736.842C412.631 743.82 418.284 749.473 425.263 749.473H677.894C684.872 749.473 690.525 743.82 690.525 736.842C690.527 729.864 684.872 724.211 677.895 724.211Z" fill="white"/>
<path d="M315.789 724.211H314.105C307.127 724.211 301.474 729.864 301.474 736.842C301.474 743.82 307.127 749.473 314.105 749.473H315.789C322.767 749.473 328.421 743.82 328.421 736.842C328.421 729.864 322.767 724.211 315.789 724.211Z" fill="white"/>
<path d="M256.842 724.211H122.105C115.127 724.211 109.474 729.864 109.474 736.842C109.474 743.82 115.127 749.473 122.105 749.473H256.842C263.82 749.473 269.474 743.82 269.474 736.842C269.474 729.864 263.82 724.211 256.842 724.211Z" fill="white"/>
</g>
<defs>
<clipPath id="clip0_74_2">
<rect width="800" height="800" fill="white"/>
</clipPath>
</defs>
</svg>
