<svg width="800" height="800" viewBox="0 0 800 800" fill="none" xmlns="http://www.w3.org/2000/svg">
<g clip-path="url(#clip0_40_2)">
<path d="M268.6 675.9C268.6 646.144 244.044 631.267 194.933 631.267C147.911 631.267 124.4 646.744 124.4 677.7C124.4 707.767 149.989 722.8 201.166 722.8C246.1 722.733 268.566 707.111 268.566 675.933L268.6 675.9ZM242.266 338.833C242.3 338 242.333 337.033 242.333 336.067C242.333 320.067 237.333 305.233 228.8 293.067L228.966 293.3C220.466 282.1 207.133 274.9 192.133 274.9C191.1 274.9 190.1 274.933 189.1 275H189.233C152.322 275 133.866 296.578 133.866 339.733C133.866 379.911 152.322 400 189.233 400C224.611 400.022 242.3 379.644 242.3 338.867L242.266 338.833ZM362.266 194.2V284.4C351.6 287.956 339.844 291.222 327 294.2C331.4 305.3 334.033 318.167 334.133 331.633V331.7C334.166 332.867 334.2 334.233 334.2 335.633C334.2 370.867 321.9 403.2 301.333 428.633L301.566 428.367C279.8 454.6 249.2 472.833 214.4 478.467L213.566 478.567C203.266 480.033 194.166 484.367 186.833 490.667L186.9 490.6C181.433 496.7 178.1 504.8 178.1 513.7C178.1 514.7 178.133 515.667 178.233 516.633V516.5V517.167C178.233 526.033 182.1 534 188.266 539.467L188.3 539.5C195.533 545.833 204.166 550.733 213.7 553.667L214.2 553.8C224.755 557.222 236.433 560.489 249.233 563.6C262.033 566.711 274.833 570.511 287.633 575C301.033 579.667 312.6 585.333 323.366 592.167L322.666 591.767C333.6 598.933 342.366 608.567 348.366 619.9L348.566 620.3C354.933 632.4 358.666 646.733 358.666 661.933C358.666 662.767 358.666 663.567 358.633 664.4V664.267C358.7 754.778 304.755 800.033 196.8 800.033C196.333 800.033 195.8 800.033 195.266 800.033C175.266 800.033 155.766 798 136.933 794.133L138.8 794.467C119.266 790.433 101.966 784.1 85.9331 775.667L87.0331 776.2C70.6998 767.7 57.4331 755.2 48.1998 740.033L47.9664 739.6C38.8331 724.133 33.4331 705.5 33.4331 685.6C33.4331 684.6 33.4331 683.6 33.4664 682.6V682.733C33.4664 633.622 60.5553 600.133 114.733 582.267V580.467C96.6331 569.567 84.6998 550.033 84.6998 527.733C84.6998 526.5 84.7331 525.267 84.7998 524.067V524.233C84.7998 491.789 94.1775 471.4 112.933 463.067V461.267C89.4331 452.233 70.7331 435.133 59.8664 413.4L59.5998 412.833C46.7331 391.733 38.8998 366.3 38.2664 339.1V338.933C38.2331 337.833 38.2331 336.567 38.2331 335.267C38.2331 296.133 54.4998 260.767 80.6331 235.6L80.6664 235.567C106.7 210 142.433 194.2 181.866 194.2C183.166 194.2 184.466 194.233 185.766 194.267H185.566H186.6C215.466 194.267 242.533 202.067 265.8 215.667L265.066 215.267C300.466 214.3 333.8 206.633 364.266 193.567L362.5 194.233L362.266 194.2ZM504.233 587.5H405.2C406.4 574.122 407 554.189 407 527.7V255.833C407 227.856 406.4 208.811 405.2 198.7H504.333C503.133 208.522 502.533 226.978 502.533 254.067V527.733C502.533 554.222 503.133 574.155 504.333 587.533L504.233 587.5ZM772.533 488.367V576C751.433 587.033 726.433 593.5 699.933 593.5C698.166 593.5 696.366 593.467 694.6 593.4H694.866C694.033 593.433 693.033 593.433 692.033 593.433C675.833 593.433 660.4 590.133 646.366 584.167L647.133 584.467C634.766 579.3 624.3 571.7 615.966 562.233L615.9 562.133C608.066 552.3 602 540.667 598.433 528L598.266 527.3C594.433 515.4 591.533 501.467 590.066 487.1L590 486.233C588.8 473.122 588.2 457.8 588.2 440.267V283.467H589.066V281.667C586.978 281.667 584.155 281.511 580.6 281.2C577.044 280.889 574.378 280.733 572.6 280.733C563.1 281 554 281.967 545.166 283.567L546.266 283.4V198.6H589.133V164.667C589.166 163.567 589.166 162.267 589.166 160.967C589.166 148.267 588.2 135.767 586.3 123.567L586.466 124.933H687.8C686 142.833 684.966 163.6 684.966 184.633C684.966 189.533 685.033 194.433 685.133 199.3V198.567H761.4V283.4C756.933 283.4 750.466 283.111 742 282.533C733.533 281.956 727.211 281.667 723.033 281.667H685.2V444.6C685.2 483.578 698.144 503.067 724.033 503.067H725.233C742.966 503.067 759.433 497.567 772.966 488.167L772.7 488.333L772.533 488.367ZM515.466 65.6333V66.4C515.466 83.6333 508.833 99.3 498 111.033L498.033 111C487.833 122.9 472.766 130.433 455.933 130.433C455.666 130.433 455.4 130.433 455.133 130.433C454.9 130.433 454.666 130.433 454.366 130.433C437.266 130.433 421.933 122.933 411.466 111.067L411.4 111C400.333 99.4 393.533 83.6333 393.533 66.3C393.533 66.0666 393.533 65.8666 393.533 65.6333V65.6666C393.533 65.4333 393.533 65.1666 393.533 64.9C393.533 47.4667 400.233 31.5667 411.2 19.7L411.166 19.7333C421.633 7.66665 436.966 0.0666504 454.1 0.0666504H455.2H455.133H456.1C473.033 0.0666504 488.166 7.76665 498.166 19.8667L498.233 19.9666C508.9 31.9 515.4 47.7333 515.4 65.1V65.7667V65.7333L515.466 65.6333Z" fill="white"/>
</g>
<defs>
<clipPath id="clip0_40_2">
<rect width="800" height="800" fill="white"/>
</clipPath>
</defs>
</svg>
