<svg width="50" height="50" viewBox="0 0 50 50" fill="none" xmlns="http://www.w3.org/2000/svg">
<path d="M25 45.8333C36.5059 45.8333 45.8333 36.5059 45.8333 25C45.8333 13.4941 36.5059 4.16666 25 4.16666C13.494 4.16666 4.16663 13.4941 4.16663 25C4.16663 36.5059 13.494 45.8333 25 45.8333Z" fill="white"/>
<path d="M7.09741 35.6615C9.63348 39.9102 13.6395 43.1798 18.4138 44.7692C19.4562 44.9598 19.836 44.3165 19.836 43.764C19.836 43.5352 19.8321 43.131 19.827 42.5902C19.8211 41.9637 19.8134 41.1541 19.8078 40.2212C14.013 41.4798 12.7903 37.4281 12.7903 37.4281C11.8426 35.0224 10.4767 34.3817 10.4767 34.3817C8.58514 33.0886 10.6199 33.1142 10.6199 33.1142C12.711 33.2626 13.8109 35.2616 13.8109 35.2616C15.6692 38.4449 18.6875 37.5253 19.8744 36.9932C20.0637 35.6466 20.6008 34.7282 21.1968 34.2077C16.5709 33.6821 11.707 31.8941 11.707 23.9109C11.707 21.637 12.5192 19.7774 13.8518 18.3207C13.6369 17.7937 12.922 15.6758 14.0551 12.8072C14.0551 12.8072 15.8047 12.247 19.7848 14.943C21.4462 14.4814 23.229 14.2498 25.0003 14.2422C26.7691 14.2498 28.552 14.4814 30.2159 14.943C34.1934 12.247 35.9392 12.8072 35.9392 12.8072C37.0762 15.6758 36.3612 17.7937 36.1464 18.3207C37.4816 19.7774 38.2886 21.637 38.2886 23.9109C38.2886 31.9146 33.4171 33.6756 28.7758 34.191C29.524 34.8344 30.1903 36.1056 30.1903 38.0497C30.1903 39.9117 30.1789 41.5335 30.1713 42.6078C30.1675 43.1399 30.1647 43.5377 30.1647 43.764C30.1647 44.3216 30.5394 44.97 31.5971 44.7667C35.4005 43.4971 38.7158 41.1619 41.1878 38.1149C37.3682 42.8237 31.5355 45.8333 24.9997 45.8333C17.3899 45.8333 10.7332 41.7533 7.09741 35.6615Z" fill="black"/>
</svg>
