<svg width="50" height="46" viewBox="0 0 50 46" fill="none" xmlns="http://www.w3.org/2000/svg">
<path d="M1.62364 45.8367H8.12372C9.02048 45.8367 9.74736 45.1097 9.74736 44.213V15.8013C9.74736 14.9044 9.02048 14.1776 8.12372 14.1776H1.62364C0.726794 14.1776 0 14.9044 0 15.8013V44.213C0 45.1096 0.726794 45.8367 1.62364 45.8367Z" fill="white"/>
<path d="M1.62364 9.18268H8.12372C9.02048 9.18268 9.74736 8.45579 9.74736 7.55904V1.78693C9.74736 0.890169 9.02048 0.163284 8.12372 0.163284H1.62364C0.726794 0.163284 0 0.890169 0 1.78693V7.55904C0 8.45579 0.726794 9.18268 1.62364 9.18268Z" fill="white"/>
<path d="M47.5543 17.473C46.6409 16.2707 45.294 15.282 43.5132 14.507C41.7323 13.7325 39.7666 13.345 37.6159 13.345C33.2499 13.345 29.5503 15.0112 26.5173 18.3444C25.9138 19.0076 25.475 18.8626 25.475 17.9657V15.8013C25.475 14.9044 24.7481 14.1776 23.8513 14.1776H18.0449C17.1481 14.1776 16.4213 14.9044 16.4213 15.8013V44.213C16.4213 45.1097 17.1481 45.8367 18.0449 45.8367H24.545C25.4418 45.8367 26.1686 45.1097 26.1686 44.213V34.3321C26.1686 30.2157 26.4172 27.3942 26.9143 25.868C27.4113 24.3418 28.3308 23.1162 29.6721 22.1912C31.0135 21.2661 32.5281 20.8033 34.2165 20.8033C35.5346 20.8033 36.6621 21.1272 37.5988 21.7749C38.5354 22.4225 39.2119 23.3298 39.6282 24.4979C40.0447 25.6658 40.2527 28.2385 40.2527 32.2163V44.2129C40.2527 45.1096 40.9795 45.8366 41.8762 45.8366H48.3763C49.2731 45.8366 49.9999 45.1096 49.9999 44.2129V28.1228C49.9999 25.2785 49.8206 23.093 49.4625 21.5668C49.1044 20.0405 48.4682 18.676 47.5543 17.473Z" fill="white"/>
</svg>
