<svg xmlns="http://www.w3.org/2000/svg" xmlns:xlink="http://www.w3.org/1999/xlink" width="500" zoomAndPan="magnify" viewBox="0 0 375 374.999991" height="500" preserveAspectRatio="xMidYMid meet" version="1.0"><defs><clipPath id="0ed35b3d62"><path d="M 37.5 68.589844 L 237 68.589844 L 237 306.339844 L 37.5 306.339844 Z M 37.5 68.589844 " clip-rule="nonzero"/></clipPath><clipPath id="0c4a0e7658"><path d="M 138 68.589844 L 337.363281 68.589844 L 337.363281 306.339844 L 138 306.339844 Z M 138 68.589844 " clip-rule="nonzero"/></clipPath></defs><g clip-path="url(#0ed35b3d62)"><path fill="#00bf63" d="M 136.210938 187.523438 L 63.484375 143.804688 L 63.484375 113.960938 L 149.300781 165.003906 L 161.132812 172.390625 L 211.820312 202.179688 L 236.742188 187.523438 L 186.476562 157.257812 L 57 80.027344 L 37.363281 68.617188 L 37.363281 158.519531 L 42.285156 161.339844 L 63.484375 174.011719 L 81.082031 184.644531 L 110.867188 202.179688 L 116.214844 199.355469 L 110.867188 202.179688 L 136.210938 217.3125 L 63.484375 260.609375 L 63.484375 203.441406 L 37.363281 188.726562 L 37.363281 306.371094 L 186.476562 217.3125 L 170.140625 207.523438 L 161.132812 202.179688 Z M 136.210938 187.523438 " fill-opacity="1" fill-rule="nonzero"/></g><g clip-path="url(#0c4a0e7658)"><path fill="#00bf63" d="M 168.097656 86.214844 L 157.890625 80.089844 L 138.253906 68.617188 L 138.253906 98.464844 L 168.097656 116.421875 Z M 198.308594 134.378906 L 249.773438 165.003906 L 255.058594 168.246094 L 261.601562 171.910156 L 262.023438 172.332031 L 263.226562 173.171875 L 286.945312 187.464844 L 263.226562 201.335938 L 262.023438 202.179688 L 261.601562 202.597656 L 255.058594 206.683594 L 249.773438 209.566406 L 187.675781 246.738281 L 138.253906 276.164062 L 138.253906 306.371094 L 157.890625 294.542969 L 287.007812 217.3125 L 337.632812 187.523438 L 286.945312 157.316406 L 198.308594 104.171875 Z M 198.308594 134.378906 " fill-opacity="1" fill-rule="nonzero"/></g></svg>