<svg width="50" height="50" viewBox="0 0 50 50" fill="none" xmlns="http://www.w3.org/2000/svg">
<g clip-path="url(#clip0_12_41)">
<path d="M42.3195 22.1369C35.1048 15.7515 25.1179 15.6266 21.5957 15.8197V7.95742C21.5957 7.33249 21.0844 6.82121 20.4595 6.82121C20.1982 6.82121 19.9368 6.91207 19.7323 7.08249L0.417334 22.989C-0.071257 23.3866 -0.139428 24.1024 0.258305 24.591C0.303787 24.6478 0.360561 24.6933 0.417334 24.7501L19.7323 40.6565C20.2209 41.0541 20.9367 40.9859 21.3343 40.4975C21.5047 40.2929 21.5956 40.0429 21.5956 39.7703V31.5671C25.2882 30.715 40.2516 28.3176 47.8639 42.5767C48.057 42.9516 48.4434 43.1788 48.8638 43.1788C49.2273 43.1788 49.5796 43.0084 49.8068 42.6789C49.9431 42.4858 49.9999 42.2472 49.9999 42.0086C49.9887 33.3395 47.4095 26.6588 42.3195 22.1369ZM27.7537 28.6699C23.3794 28.6699 20.2209 29.5675 20.1413 29.5902C19.6527 29.7265 19.3233 30.1696 19.3233 30.6809V37.3616L2.92825 23.8638L19.3233 10.3661V17.0468C19.3233 17.6717 19.8345 18.183 20.4595 18.183C20.505 18.183 20.5503 18.183 20.5958 18.1716C20.7208 18.1602 32.8665 16.7968 40.8084 23.8412C44.5578 27.1588 46.796 31.8512 47.4891 37.7934C41.7287 30.2833 33.6391 28.6699 27.7537 28.6699Z" fill="white"/>
</g>
<defs>
<clipPath id="clip0_12_41">
<rect width="50" height="50" fill="white"/>
</clipPath>
</defs>
</svg>
