<svg width="512" height="512" viewBox="0 0 512 512" fill="none" xmlns="http://www.w3.org/2000/svg">
<g clip-path="url(#clip0_42_2)">
<path d="M512 396.888H0.111816V412.888H512V396.888Z" fill="white"/>
<path d="M511.872 444.2H0V460.2H511.872V444.2Z" fill="white"/>
<path d="M343.488 57.272V128.184H512V57.272H343.488ZM496 112.184H359.488V73.272H496V112.184Z" fill="white"/>
<path d="M343.488 255.672V326.584H512V255.672H343.488ZM496 310.584H359.488V271.672H496V310.584Z" fill="white"/>
<path d="M343.488 156.6V227.512H512V156.6H343.488ZM496 211.496H359.488V172.584H496V211.496Z" fill="white"/>
<path d="M98.2241 122.328V261.784L217.008 192.056L98.2241 122.328ZM114.224 150.264L185.392 192.04L114.224 233.816V150.264Z" fill="white"/>
<path d="M252.432 51.8H41.824C18.752 51.784 0 70.792 0 94.136V289.736C0 313.064 18.752 332.072 41.824 332.072H252.432C275.456 332.072 294.208 313.064 294.208 289.736V94.136C294.208 70.792 275.456 51.8 252.432 51.8ZM278.192 289.736C278.192 304.264 266.624 316.072 252.416 316.072H41.824C27.584 316.072 16 304.264 16 289.72V94.136C16 79.608 27.584 67.8 41.808 67.8H252.416C266.64 67.8 278.192 79.608 278.192 94.136V289.736Z" fill="white"/>
</g>
<defs>
<clipPath id="clip0_42_2">
<rect width="512" height="512" fill="white"/>
</clipPath>
</defs>
</svg>
